<svg width="36" height="36" viewBox="0 0 36 36" fill="none" xmlns="http://www.w3.org/2000/svg">
<path d="M18 25.5C18 26.3284 18.6716 27 19.5 27H30C30.8284 27 31.5 26.3284 31.5 25.5C31.5 24.6716 30.8284 24 30 24H24.5H19.5C18.6716 24 18 24.6716 18 25.5ZM4.5 18C4.5 18.8284 5.17157 19.5 6 19.5H30C30.8284 19.5 31.5 18.8284 31.5 18C31.5 17.1716 30.8284 16.5 30 16.5H6C5.17157 16.5 4.5 17.1716 4.5 18ZM6 9C5.17157 9 4.5 9.67157 4.5 10.5C4.5 11.3284 5.17157 12 6 12H16.5C17.3284 12 18 11.3284 18 10.5C18 9.67157 17.3284 9 16.5 9H6Z" fill="#F6851F"/>
</svg>
