<svg width="24" height="24" viewBox="0 0 24 24" fill="none" xmlns="http://www.w3.org/2000/svg">
<path d="M6.5 2.25C5.61184 2.25 4.88648 2.30474 4.30608 2.45021C3.71377 2.59866 3.21857 2.85536 2.86423 3.29473C2.51831 3.72367 2.37925 4.23844 2.31453 4.7518C2.25055 5.25931 2.25 5.8576 2.25 6.5C2.25 6.51886 2.25 6.53768 2.25 6.55647C2.24994 7.17492 2.24989 7.75268 2.30841 8.24323C2.3694 8.75449 2.50318 9.27099 2.84698 9.70208C3.19977 10.1444 3.69602 10.4016 4.29019 10.55C4.87239 10.6953 5.60261 10.75 6.5 10.75C7.39739 10.75 8.12761 10.6953 8.70981 10.55C9.30397 10.4016 9.80022 10.1444 10.153 9.70208C10.4968 9.27099 10.6306 8.75448 10.6916 8.24323C10.7501 7.75268 10.7501 7.17492 10.75 6.55647C10.75 6.53768 10.75 6.51886 10.75 6.5C10.75 5.8576 10.7495 5.25931 10.6855 4.7518C10.6207 4.23844 10.4817 3.72367 10.1358 3.29473C9.78143 2.85536 9.28623 2.59866 8.69392 2.45021C8.11352 2.30474 7.38816 2.25 6.5 2.25Z" stroke="#F6851F" stroke-width="1.5" stroke-linecap="round" stroke-linejoin="round"/>
<path d="M17.5 2.25C16.6118 2.25 15.8865 2.30474 15.3061 2.45021C14.7138 2.59866 14.2186 2.85536 13.8642 3.29473C13.5183 3.72367 13.3793 4.23844 13.3145 4.7518C13.2505 5.25931 13.25 5.8576 13.25 6.5C13.25 6.51886 13.25 6.53768 13.25 6.55647C13.2499 7.17492 13.2499 7.75268 13.3084 8.24323C13.3694 8.75449 13.5032 9.27099 13.847 9.70208C14.1998 10.1444 14.696 10.4016 15.2902 10.55C15.8724 10.6953 16.6026 10.75 17.5 10.75C18.3974 10.75 19.1276 10.6953 19.7098 10.55C20.304 10.4016 20.8002 10.1444 21.153 9.70208C21.4968 9.27099 21.6306 8.75448 21.6916 8.24323C21.7501 7.75268 21.7501 7.17492 21.75 6.55647C21.75 6.53768 21.75 6.51886 21.75 6.5C21.75 5.8576 21.7495 5.25931 21.6855 4.7518C21.6207 4.23844 21.4817 3.72367 21.1358 3.29473C20.7814 2.85536 20.2862 2.59866 19.6939 2.45021C19.1135 2.30474 18.3882 2.25 17.5 2.25Z" stroke="#F6851F" stroke-width="1.5" stroke-linecap="round" stroke-linejoin="round"/>
<path d="M6.5 13.25C5.61184 13.25 4.88648 13.3047 4.30608 13.4502C3.71377 13.5987 3.21857 13.8554 2.86423 14.2947C2.51831 14.7237 2.37925 15.2384 2.31453 15.7518C2.25055 16.2593 2.25 16.8576 2.25 17.5C2.25 17.5189 2.25 17.5377 2.25 17.5565C2.24994 18.1749 2.24989 18.7527 2.30841 19.2432C2.3694 19.7545 2.50318 20.271 2.84698 20.7021C3.19977 21.1445 3.69602 21.4016 4.29019 21.55C4.87239 21.6953 5.60261 21.75 6.5 21.75C7.39739 21.75 8.12761 21.6953 8.70981 21.55C9.30398 21.4016 9.80022 21.1445 10.153 20.7021C10.4968 20.271 10.6306 19.7545 10.6916 19.2432C10.7501 18.7527 10.7501 18.1749 10.75 17.5565C10.75 17.5377 10.75 17.5189 10.75 17.5C10.75 16.8576 10.7495 16.2593 10.6855 15.7518C10.6207 15.2384 10.4817 14.7237 10.1358 14.2947C9.78143 13.8554 9.28623 13.5987 8.69392 13.4502C8.11352 13.3047 7.38816 13.25 6.5 13.25Z" stroke="#F6851F" stroke-width="1.5" stroke-linecap="round" stroke-linejoin="round"/>
<path d="M17.5 13.25C16.6118 13.25 15.8865 13.3047 15.3061 13.4502C14.7138 13.5987 14.2186 13.8554 13.8642 14.2947C13.5183 14.7237 13.3793 15.2384 13.3145 15.7518C13.2505 16.2593 13.25 16.8576 13.25 17.5C13.25 17.5189 13.25 17.5377 13.25 17.5565C13.2499 18.1749 13.2499 18.7527 13.3084 19.2432C13.3694 19.7545 13.5032 20.271 13.847 20.7021C14.1998 21.1445 14.696 21.4016 15.2902 21.55C15.8724 21.6953 16.6026 21.75 17.5 21.75C18.3974 21.75 19.1276 21.6953 19.7098 21.55C20.304 21.4016 20.8002 21.1445 21.153 20.7021C21.4968 20.271 21.6306 19.7545 21.6916 19.2432C21.7501 18.7527 21.7501 18.1749 21.75 17.5565C21.75 17.5377 21.75 17.5189 21.75 17.5C21.75 16.8576 21.7495 16.2593 21.6855 15.7518C21.6207 15.2384 21.4817 14.7237 21.1358 14.2947C20.7814 13.8554 20.2862 13.5987 19.6939 13.4502C19.1135 13.3047 18.3882 13.25 17.5 13.25Z" stroke="#F6851F" stroke-width="1.5" stroke-linecap="round" stroke-linejoin="round"/>
</svg>
